Coordinates
version=1
nRows=37
nColumns=38
inDegrees=no

Units are S.I. units (second, meters, Newtons, ...)
If the header above contains a line with 'inDegrees', this indicates whether rotational values are in degrees (yes) or radians (no).

endheader
time	pelvis_tilt	pelvis_list	pelvis_rotation	pelvis_tx	pelvis_ty	pelvis_tz	hip_flexion_r	hip_adduction_r	hip_rotation_r	knee_angle_r	ankle_angle_r	subtalar_angle_r	mtp_angle_r	hip_flexion_l	hip_adduction_l	hip_rotation_l	knee_angle_l	ankle_angle_l	subtalar_angle_l	mtp_angle_l	lumbar_extension	lumbar_bending	lumbar_rotation	arm_flex_r	arm_add_r	arm_rot_r	elbow_flex_r	pro_sup_r	wrist_flex_r	wrist_dev_r	arm_flex_l	arm_add_l	arm_rot_l	elbow_flex_l	pro_sup_l	wrist_flex_l	wrist_dev_l
24.39	2.95072	1.29778	-1.43205	0.728582	-0.459663	0.952204	-0.409473	0.0092592	-0.312211	0.0666288	0.00473524	0	0	-0.39547	-0.0389233	-0.333689	0	-0.020468	0	0	-0.368342	-0.0157824	0.0940697	-0.0189408	-0.346303	0.339713	1.06116	1.55748	0	0	-0.0214567	-0.248131	0.220722	0.642066	1.5708	0	0
24.4	2.98645	1.29552	-1.46251	0.725295	-0.459318	0.95197	-0.413857	-0.00407801	-0.31842	0.0690189	0.00922536	0	0	-0.398622	-0.0263527	-0.322826	0	-0.0210166	0	0	-0.372264	-0.0190877	0.0865914	-0.0156244	-0.342574	0.356634	0.997323	1.5503	0	0	-0.0162096	-0.233441	0.228513	0.576271	1.5708	0	0
24.41	2.98781	1.29037	-1.46462	0.72519	-0.459256	0.952078	-0.419406	-0.00453469	-0.318736	0.0694921	0.010136	0	0	-0.404647	-0.0260053	-0.323563	0	-0.0204227	0	0	-0.378532	-0.0190036	0.0864828	-0.00830514	-0.33204	0.377203	0.925089	1.54122	0	0	-0.012583	-0.225841	0.238136	0.518875	1.5708	0	0
24.42	2.9873	1.28676	-1.46507	0.725098	-0.458993	0.952083	-0.423719	-0.00456493	-0.318015	0.069273	0.0109821	0	0	-0.409182	-0.0260172	-0.323415	0	-0.0199272	0	0	-0.382753	-0.019116	0.0869526	-0.0113408	-0.326242	0.370131	0.875003	1.46702	0	0	-0.00997601	-0.219317	0.25166	0.465554	1.5708	0	0
24.43	2.98246	1.27996	-1.46255	0.724907	-0.459025	0.95219	-0.430585	-0.00397352	-0.316158	0.0699732	0.0117739	0	0	-0.417201	-0.0268163	-0.324766	0	-0.0189874	0	0	-0.390763	-0.0157868	0.0888442	0.00864742	-0.31154	0.427665	0.776338	1.47346	0	0	-0.00846456	-0.212156	0.264767	0.418112	1.5708	0	0
24.44	2.97878	1.27717	-1.46061	0.724877	-0.458797	0.95221	-0.43368	-0.00330833	-0.313556	0.0694776	0.0118816	0	0	-0.42068	-0.0273781	-0.325586	0	-0.0182332	0	0	-0.394358	-0.0152563	0.0896364	0.00626282	-0.307514	0.420518	0.732888	1.39636	0	0	-0.00886366	-0.206386	0.272331	0.376754	1.5708	0	0
24.45	2.97391	1.26842	-1.45819	0.724525	-0.459015	0.952456	-0.442702	-0.00256433	-0.309936	0.0694105	0.0117945	0	0	-0.430572	-0.0281859	-0.328341	0	-0.0162999	0	0	-0.405552	-0.0104944	0.0924753	0.0276263	-0.291589	0.48612	0.629366	1.39817	0	0	-0.00910313	-0.199673	0.278007	0.343486	1.5708	0	0
24.46	2.93899	1.26078	-1.44704	0.725283	-0.461592	0.953325	-0.435852	-0.00355784	-0.284471	0.084029	0.0120081	0	0	-0.437827	-0.0297195	-0.351613	0	-0.0166176	0	0	-0.420309	-0.00476514	0.116031	0.0309136	-0.299801	0.48541	0.60081	1.29818	0	0	-0.00523942	-0.188507	0.281973	0.315949	1.5708	0	0
24.47	2.97041	1.263	-1.45614	0.724018	-0.458498	0.95253	-0.449149	-0.00229348	-0.308095	0.0690035	0.0122788	0	0	-0.43721	-0.0284489	-0.330868	0	-0.0139216	0	0	-0.412827	-0.00815051	0.0936709	0.0285822	-0.282317	0.504881	0.535822	1.22779	0	0	-0.0189734	-0.19312	0.285449	0.302801	1.5708	0	0
24.48	2.96681	1.25372	-1.45388	0.723369	-0.458595	0.952727	-0.459632	-0.00161434	-0.305553	0.0682069	0.0127481	0	0	-0.447793	-0.0290599	-0.333052	0	-0.0126173	0	0	-0.424633	-0.0014292	0.0967117	0.0436697	-0.26766	0.585578	0.440426	1.22078	0	0	-0.0268713	-0.190617	0.291052	0.299473	1.5708	0	0
24.49	2.96247	1.24996	-1.45141	0.723072	-0.4584	0.952778	-0.464146	-0.0010214	-0.302762	0.0671752	0.0120676	0	0	-0.452384	-0.0295153	-0.335466	0	-0.0116992	0	0	-0.429266	0.00189885	0.099694	0.0448176	-0.26299	0.628646	0.389963	1.19539	0	0	-0.0376463	-0.190681	0.295813	0.303788	1.5708	0	0
24.5	2.9564	1.24729	-1.44789	0.722869	-0.458256	0.952817	-0.467163	-0.000157064	-0.299339	0.0659633	0.0101946	0	0	-0.455713	-0.0302485	-0.338726	0	-0.0108025	0	0	-0.432645	0.00526766	0.104265	0.043086	-0.259426	0.667271	0.347442	1.16445	0	0	-0.0491511	-0.191819	0.302188	0.31333	1.5708	0	0
24.51	2.95052	1.24587	-1.44435	0.722725	-0.458088	0.952847	-0.468362	0.000524669	-0.296578	0.0658353	0.00967565	0	0	-0.457628	-0.0309631	-0.341684	0	-0.0099934	0	0	-0.434403	0.00813506	0.109075	0.0392587	-0.257181	0.699184	0.313695	1.12983	0	0	-0.0612401	-0.194254	0.310766	0.326134	1.5708	0	0
24.52	2.94642	1.24542	-1.44172	0.722561	-0.457768	0.952858	-0.468899	0.00089784	-0.294115	0.0657244	0.0093102	0	0	-0.458561	-0.0314042	-0.342996	0	-0.0088922	0	0	-0.43462	0.0102192	0.113343	0.0334877	-0.256049	0.722812	0.289042	1.09446	0	0	-0.0731738	-0.198023	0.321233	0.341535	1.5708	0	0
24.53	2.94314	1.24601	-1.43951	0.722385	-0.457419	0.952848	-0.468224	0.00104083	-0.292215	0.0660198	0.00973648	0	0	-0.458328	-0.0316301	-0.343506	0	-0.00823011	0	0	-0.433384	0.0118394	0.117588	0.0258499	-0.256664	0.742026	0.274071	1.06568	0	0	-0.0845624	-0.202312	0.329541	0.358511	1.5708	0	0
24.54	2.93006	1.24985	-1.43437	0.722137	-0.45853	0.952881	-0.46781	0.00354514	-0.296578	0.0497523	-0.000897791	0	0	-0.45272	-0.031226	-0.348968	0	-0.00868312	0	0	-0.432238	0.0149116	0.129639	0.0198788	-0.262813	0.756537	0.269446	1.04716	0	0	-0.0910435	-0.203292	0.340795	0.37409	1.5708	0	0
24.55	2.93583	1.24947	-1.43495	0.722006	-0.456567	0.952747	-0.465034	0.00106879	-0.287772	0.0651047	0.00796885	0	0	-0.455593	-0.0316542	-0.344236	0	-0.00799566	0	0	-0.427428	0.0148338	0.127541	0.00505845	-0.264567	0.765131	0.271571	1.03961	0	0	-0.106393	-0.211472	0.351619	0.39305	1.5708	0	0
24.56	2.9318	1.25217	-1.43236	0.721849	-0.456114	0.952645	-0.461072	0.000673283	-0.287984	0.0673258	0.00828472	0	0	-0.453182	-0.0316625	-0.344829	0	-0.00789011	0	0	-0.423189	0.016126	0.132779	-0.00730939	-0.270767	0.767888	0.280555	1.0427	0	0	-0.115687	-0.216411	0.362649	0.408499	1.5708	0	0
24.57	2.91813	1.25773	-1.42649	0.721631	-0.457227	0.952628	-0.458338	0.0031149	-0.293174	0.0519359	-0.00156375	0	0	-0.445589	-0.0312377	-0.350838	0	-0.00827548	0	0	-0.41977	0.018767	0.145027	-0.016686	-0.280455	0.764446	0.29337	1.05548	0	0	-0.118953	-0.217637	0.374989	0.419816	1.5708	0	0
24.58	2.92557	1.25847	-1.42726	0.721467	-0.455394	0.952487	-0.454106	0.000746589	-0.286001	0.0679486	0.00887248	0	0	-0.446826	-0.031686	-0.345625	0	-0.00734542	0	0	-0.414003	0.0177931	0.141221	-0.0324304	-0.282913	0.755475	0.30495	1.07558	0	0	-0.131412	-0.226135	0.37994	0.436937	1.5708	0	0
24.59	2.92511	1.26173	-1.42685	0.721268	-0.45513	0.952402	-0.449603	-0.000191258	-0.288122	0.0703052	0.0100336	0	0	-0.443372	-0.0310534	-0.345522	0	-0.00753531	0	0	-0.409638	0.0174378	0.144346	-0.0438119	-0.287662	0.74155	0.31655	1.09958	0	0	-0.137176	-0.229654	0.376589	0.449582	1.5708	0	0
24.6	2.97117	1.27119	-1.46531	0.72004	-0.452922	0.951067	-0.452674	-0.0117108	-0.245828	0.059922	0.0135656	0	0	-0.436773	-0.0163249	-0.334068	0	-0.00724937	0	0	-0.394521	0.00478954	0.134619	-0.0594527	-0.289146	0.725829	0.326639	1.12707	0	0	-0.149949	-0.234027	0.358779	0.463317	1.5708	0	0
24.61	2.92588	1.26837	-1.42788	0.720999	-0.454573	0.952134	-0.445232	-0.00102494	-0.285743	0.0655428	0.00719375	0	0	-0.436558	-0.0293567	-0.344526	0	-0.0076827	0	0	-0.400597	0.0155059	0.147845	-0.0624957	-0.29474	0.712822	0.336033	1.15613	0	0	-0.147309	-0.231836	0.344306	0.469836	1.5708	0	0
24.62	2.99811	1.30243	-1.48208	0.718315	-0.451139	0.948442	-0.414305	-0.0245803	-0.313768	0.0757033	0.0278843	0	0	-0.402992	-0.00760185	-0.319748	0	-0.00484827	0	0	-0.356102	-0.00274416	0.125556	-0.0806542	-0.292342	0.701742	0.339748	1.18735	0	0	-0.16453	-0.23551	0.330788	0.477819	1.5708	0	0
24.63	2.96111	1.29732	-1.44221	0.717456	-0.451458	0.949803	-0.428465	-0.00907714	-0.320405	0.0523036	0.00907802	0	0	-0.406226	-0.0195586	-0.320061	0	-0.00556318	0	0	-0.361665	0.00962291	0.126327	-0.0845138	-0.29739	0.689277	0.34649	1.21391	0	0	-0.163323	-0.231664	0.317442	0.48144	1.5708	0	0
24.64	2.99097	1.29575	-1.46433	0.715893	-0.450283	0.949802	-0.402504	-0.0269851	-0.328952	0.11846	0.0408034	0	0	-0.409815	-0.0121223	-0.311843	0	-0.006266	0	0	-0.360337	0.00407789	0.11708	-0.0933345	-0.299922	0.672735	0.354751	1.23485	0	0	-0.170143	-0.231863	0.302508	0.490784	1.5708	0	0
24.65	2.96994	1.30044	-1.44766	0.716577	-0.451219	0.949659	-0.424231	-0.0120413	-0.32793	0.0562688	0.0125042	0	0	-0.402731	-0.0171769	-0.31598	0	-0.00567018	0	0	-0.357374	0.00657113	0.122699	-0.0947569	-0.300313	0.653168	0.358741	1.25622	0	0	-0.167129	-0.230095	0.289436	0.492079	1.5708	0	0
24.66	3.05962	1.31192	-1.53225	0.715658	-0.44847	0.947111	-0.416163	-0.0378243	-0.278112	0.0668133	0.0313744	0	0	-0.395271	0.0087981	-0.304134	0	-0.00554687	0	0	-0.338777	-0.0186816	0.110641	-0.106059	-0.297955	0.640089	0.365266	1.26597	0	0	-0.18	-0.235445	0.276026	0.504051	1.5708	0	0
24.67	3.06772	1.31459	-1.54029	0.715519	-0.448603	0.946793	-0.416834	-0.0392494	-0.277534	0.0596843	0.0290447	0	0	-0.392095	0.0111867	-0.303268	0	-0.00551724	0	0	-0.335891	-0.0220618	0.109935	-0.108744	-0.298783	0.628384	0.371239	1.26983	0	0	-0.179034	-0.234896	0.264746	0.507869	1.5708	0	0
24.68	3.07102	1.31434	-1.54116	0.715002	-0.44867	0.946831	-0.417757	-0.0395052	-0.279211	0.0589553	0.0281473	0	0	-0.391968	0.0115536	-0.301546	0	-0.00534192	0	0	-0.33612	-0.0229145	0.107287	-0.110285	-0.299331	0.612869	0.376584	1.26449	0	0	-0.176294	-0.23305	0.253246	0.509107	1.5708	0	0
24.69	3.02896	1.31199	-1.5021	0.71551	-0.450756	0.947786	-0.411193	-0.0305856	-0.323634	0.0663502	0.0250139	0	0	-0.391707	-0.000125751	-0.307731	0	-0.00453532	0	0	-0.343101	-0.0136127	0.113164	-0.106127	-0.300176	0.593535	0.381072	1.24899	0	0	-0.163897	-0.228217	0.244087	0.502766	1.5708	0	0
24.7	3.07812	1.3134	-1.54405	0.714005	-0.448902	0.946817	-0.417985	-0.0410314	-0.28548	0.0616157	0.0299455	0	0	-0.392217	0.0126796	-0.297633	0	-0.00500887	0	0	-0.337355	-0.024845	0.103023	-0.110986	-0.298625	0.574369	0.387396	1.22946	0	0	-0.164161	-0.22771	0.234782	0.502138	1.5708	0	0
24.71	3.0815	1.31199	-1.54575	0.713557	-0.449025	0.946849	-0.421447	-0.0411778	-0.284199	0.0582249	0.0282688	0	0	-0.393484	0.0133242	-0.295967	0	-0.00495494	0	0	-0.339	-0.0258546	0.101714	-0.109963	-0.297856	0.557671	0.392684	1.20559	0	0	-0.15635	-0.225431	0.228789	0.497835	1.5708	0	0
24.72	3.03864	1.30912	-1.5069	0.714129	-0.451173	0.947772	-0.415632	-0.0323088	-0.327094	0.0649822	0.0249674	0	0	-0.393897	0.00173186	-0.303172	0	-0.00385829	0	0	-0.346759	-0.0163052	0.108822	-0.102382	-0.297782	0.540843	0.396432	1.17619	0	0	-0.14032	-0.220596	0.224751	0.488358	1.5708	0	0
24.73	3.0416	1.30861	-1.50865	0.713672	-0.45135	0.947698	-0.413658	-0.0341656	-0.333574	0.0705621	0.0282507	0	0	-0.394155	0.00247983	-0.302133	0	-0.00339023	0	0	-0.347582	-0.0171158	0.107715	-0.0986485	-0.296413	0.526819	0.400206	1.14631	0	0	-0.13005	-0.217725	0.220616	0.481357	1.5708	0	0
24.74	3.04549	1.30678	-1.51073	0.713249	-0.451574	0.947769	-0.415034	-0.035071	-0.336754	0.0722029	0.0299032	0	0	-0.395751	0.00311132	-0.300446	0	-0.00346139	0	0	-0.349944	-0.0180957	0.106157	-0.0936322	-0.294844	0.517735	0.40333	1.11819	0	0	-0.118973	-0.215495	0.217972	0.474889	1.5708	0	0
24.75	3.04889	1.30473	-1.51239	0.712818	-0.451841	0.947856	-0.417136	-0.0356166	-0.33852	0.072423	0.0301922	0	0	-0.397523	0.00362251	-0.298668	0	-0.0035271	0	0	-0.35255	-0.0189479	0.104557	-0.0872306	-0.293345	0.51266	0.405494	1.09257	0	0	-0.10759	-0.213649	0.216945	0.469332	1.5708	0	0
